<svg width="25" height="25" viewBox="0 0 25 25" fill="none" xmlns="http://www.w3.org/2000/svg">
<path d="M19.5 8.5C20.06 8.5 20.5 8.93 20.5 9.5C20.5 9.76522 20.3946 10.0196 20.2071 10.2071C20.0196 10.3946 19.7652 10.5 19.5 10.5C18.93 10.5 18.5 10.05 18.5 9.5C18.5 8.93 18.93 8.5 19.5 8.5ZM2.5 2.5V11.5C2.5 14.46 4.69 17 7.64 17.41C8.26 20.42 10.92 22.5 14 22.5C14.8536 22.5 15.6988 22.3319 16.4874 22.0052C17.2761 21.6786 17.9926 21.1998 18.5962 20.5962C19.1998 19.9926 19.6786 19.2761 20.0052 18.4874C20.3319 17.6988 20.5 16.8536 20.5 16V12.31C21.66 11.89 22.5 10.79 22.5 9.5C22.5 8.70435 22.1839 7.94129 21.6213 7.37868C21.0587 6.81607 20.2956 6.5 19.5 6.5C18.7044 6.5 17.9413 6.81607 17.3787 7.37868C16.8161 7.94129 16.5 8.70435 16.5 9.5C16.5 10.79 17.34 11.9 18.5 12.31V15.91C18.5 18.41 16.5 20.41 14 20.41C12 20.41 10.32 19.2 9.72 17.4C12.5 16.8 14.5 14.3 14.5 11.5V2.5H10.5V5.5H12.5V11.5C12.5 12.5609 12.0786 13.5783 11.3284 14.3284C10.5783 15.0786 9.56087 15.5 8.5 15.5C7.43913 15.5 6.42172 15.0786 5.67157 14.3284C4.92143 13.5783 4.5 12.5609 4.5 11.5V5.5H6.5V2.5H2.5Z" fill="#7B8D9E"/>
</svg>
