<svg width="1167" height="1167" viewBox="0 0 1167 1167" fill="none" xmlns="http://www.w3.org/2000/svg">
<path d="M1022.26 199.576C1234.4 441.795 1210.01 810.124 967.795 1022.26C725.576 1234.4 357.247 1210.01 145.109 967.795C-67.0284 725.576 -42.6428 357.247 199.576 145.109C441.795 -67.0283 810.124 -42.6428 1022.26 199.576ZM167.038 948.589C368.569 1178.7 718.481 1201.86 948.589 1000.33C1178.7 798.802 1201.86 448.889 1000.33 218.782C798.802 -11.3264 448.889 -34.4926 218.782 167.038C-11.3264 368.569 -34.4926 718.482 167.038 948.589Z" fill="#1C6BA4" fill-opacity="0.22"/>
<path d="M957.236 255.861C1138.26 462.557 1117.45 776.869 910.758 957.895C704.061 1138.92 389.75 1118.11 208.723 911.417C27.6967 704.72 48.5059 390.409 255.202 209.382C461.898 28.3555 776.21 49.1648 957.236 255.861ZM227.436 895.028C399.411 1091.39 698.007 1111.16 894.369 939.182C1090.73 767.207 1110.5 468.611 938.524 272.25C766.548 75.8885 467.952 56.1197 271.591 228.095C75.2296 400.07 55.4608 698.666 227.436 895.028Z" fill="#1C6BA4" fill-opacity="0.22"/>
<path d="M884.266 319.769C1030 486.165 1013.24 739.194 846.849 884.925C680.454 1030.66 427.425 1013.9 281.694 847.508C135.963 681.112 152.715 428.084 319.111 282.353C485.506 136.622 738.535 153.374 884.266 319.769ZM296.758 834.315C435.203 992.39 675.58 1008.3 833.656 869.86C991.732 731.416 1007.65 491.039 869.202 332.963C730.757 174.887 490.38 158.973 332.304 297.417C174.228 435.862 158.314 676.239 296.758 834.315Z" fill="#1C6BA4" fill-opacity="0.22"/>
<path d="M822.909 374.171C938.62 506.291 925.319 707.197 793.2 822.909C661.08 938.62 460.174 925.319 344.462 793.2C228.751 661.08 242.052 460.174 374.171 344.462C506.291 228.751 707.197 242.052 822.909 374.171ZM356.423 782.724C466.349 908.237 657.211 920.874 782.724 810.948C908.237 701.022 920.874 510.16 810.948 384.647C701.022 259.134 510.16 246.497 384.647 356.423C259.134 466.349 246.497 657.211 356.423 782.724Z" fill="#1C6BA4" fill-opacity="0.22"/>
<path d="M772.929 417.279C864.807 522.185 854.246 681.71 749.339 773.588C644.433 865.466 484.908 854.904 393.031 749.998C301.153 645.092 311.714 485.567 416.62 393.689C521.526 301.812 681.051 312.373 772.929 417.279ZM402.528 741.68C489.812 841.341 641.361 851.375 741.021 764.091C840.682 676.807 850.716 525.258 763.432 425.597C676.148 325.936 524.599 315.903 424.938 403.187C325.277 490.471 315.244 642.02 402.528 741.68Z" fill="#1C6BA4" fill-opacity="0.22"/>
<path d="M724.031 460.104C792.257 538.005 784.415 656.464 706.514 724.69C628.614 792.916 510.155 785.074 441.928 707.173C373.702 629.273 381.545 510.813 459.446 442.587C537.346 374.361 655.805 382.204 724.031 460.104ZM448.981 700.996C513.796 775.002 626.332 782.453 700.337 717.638C774.343 652.823 781.794 540.287 716.979 466.281C652.164 392.276 539.628 384.825 465.622 449.64C391.617 514.455 384.166 626.991 448.981 700.996Z" fill="#1C6BA4" fill-opacity="0.22"/>
<path d="M682.656 496.341C730.869 551.391 725.327 635.102 670.277 683.315C615.228 731.528 531.517 725.986 483.304 670.936C435.09 615.887 440.633 532.176 495.682 483.962C550.732 435.749 634.443 441.291 682.656 496.341ZM488.287 666.571C534.09 718.869 613.615 724.134 665.913 678.331C718.21 632.529 723.475 553.003 677.672 500.706C631.87 448.409 552.344 443.144 500.047 488.946C447.75 534.749 442.485 614.274 488.287 666.571Z" fill="#1C6BA4" fill-opacity="0.22"/>
</svg>
